<?xml version="1.0" encoding="utf-8" ?>
<svg xmlns="http://www.w3.org/2000/svg" xmlns:xlink="http://www.w3.org/1999/xlink" width="512" height="512">
	<path fill="#421D13" transform="scale(0.5 0.5)" d="M420.322 101.778C457.585 98.8243 496.752 107.821 529.697 125.145C593.971 158.942 636.841 224.99 641.471 297.5C642.181 308.623 642.17 319.829 641.546 330.957C641.027 340.22 638.804 350.422 640.28 359.563C641.077 364.494 643.31 368.248 646.414 372.062C648.319 374.403 650.703 376.772 652.042 379.491C653.721 382.901 653.067 387.455 653.764 391.175C654.325 394.174 655.448 397.199 656.351 400.115C672.234 401.167 688.413 400.589 704.34 400.635C721.373 400.684 738.415 401.252 755.447 401.122C758.686 401.098 761.602 400.178 764.75 400.044C770.311 399.808 775.959 400.015 781.525 400.108C786.857 400.196 792.281 400.149 797.492 401.408C806.011 403.467 814.711 409.545 819.212 417.132C823.409 424.205 824.837 432.373 822.745 440.387C819.801 451.661 813.304 457.46 803.545 463.2C809.91 463.83 816.504 463.47 822.901 463.472C834.446 463.476 845.991 463.476 857.535 463.556C863.767 463.6 871.257 463.122 877.294 464.673C882.019 465.886 886.383 468.526 890.07 471.67C896.816 477.422 901.313 485.523 901.882 494.395C902.464 503.456 899.709 513.414 893.516 520.221C888.976 525.21 882.355 528.187 875.82 529.469C865.041 531.584 852.676 530.44 841.654 530.627C812.343 531.127 782.996 530.745 753.7 531.568L753.507 538.691C755.247 539.47 758.224 539.299 760.158 539.421C769.894 540.035 779.641 539.876 789.386 540.207C804.631 540.725 819.87 542.139 830.774 554.035C837.656 561.543 839.971 570.622 839.551 580.606C839.247 587.82 836.067 596.588 830.593 601.516C825.768 605.859 820.048 608.275 813.716 609.449C808.959 610.33 803.765 610.085 798.93 610.089C791.135 610.094 783.34 610.057 775.545 610.042C761.672 610.014 747.455 610.769 733.625 610.14L724.008 630.5C719.122 639.971 713.202 648.403 706.974 657C676.938 698.462 634.701 726.857 586.091 742.345L586.256 800.562L586.208 801.226C593.886 804.877 601.756 808.075 609.474 811.638C613.363 813.434 617.234 815.279 621.1 817.123C623.392 818.217 625.843 819.587 628.337 820.115C631.7 820.826 635.636 820.756 639.094 820.998C647.518 821.587 655.882 822.009 664.32 822.343C674.701 822.753 685.051 823.716 695.437 824.159C704.509 824.547 715.078 824.522 723.81 827.145C731.176 829.358 737.243 833.191 742.75 838.553C751.409 846.983 755.883 859.043 756.086 871.01C756.316 884.567 752.23 896.828 742.595 906.598C727.518 921.886 708.725 921.615 688.816 921.611C678.46 921.609 668.105 921.592 657.75 921.572C577.101 921.824 496.449 921.406 415.801 921.581C390.014 921.637 364.225 921.755 338.438 921.731C330.558 921.723 322.677 921.683 314.797 921.618C309.201 921.572 303.557 921.694 298 920.942C286.027 919.324 277.133 916.424 268.312 907.96C258.65 898.691 252.912 886.172 252.699 872.692C252.488 859.314 257.474 847.688 266.719 838.193C272.096 832.67 279.234 828.441 286.75 826.597C299.513 823.467 313.812 824.321 326.906 823.616C357.543 821.968 388.334 820.215 419.015 819.942C415.819 817.242 412.459 814.833 408.892 812.642C403.035 809.042 392.021 804.563 388.945 798.377C388.044 796.565 388.208 793.822 389.028 792C389.943 789.968 391.855 788.468 393.943 787.769C398.444 786.261 403.246 789.119 407.267 790.922C412.204 793.137 417.069 795.505 421.996 797.742L422.229 739.361C417.757 737.266 413.158 735.497 408.709 733.334C394.959 726.649 382.042 719.325 369.557 710.456C356.71 701.331 345.096 690.1 334.915 678.109C309.163 647.78 293.459 612.721 289.292 573.019C287.991 560.625 287.554 547.427 289.312 535.062C291.036 522.931 295.669 511.379 299.085 499.671C304.161 482.277 304.15 460.125 298.762 442.79C296.643 435.971 293.599 429.426 289.284 423.708C282.6 414.854 273.575 407.901 266.188 399.663C248.847 380.322 235.698 353.148 231.344 327.53C219.244 327.508 207.127 327.379 195.029 327.549C184.123 327.701 173.22 328.201 162.312 328.354C158.74 328.404 153.057 329.059 149.75 327.875C143.579 325.666 125.829 312.673 123.441 306.692C122.419 304.134 123.025 301.06 124.214 298.672C126.161 294.759 133.387 291.25 136.971 288.89C143.451 284.625 150.64 278.369 158.005 275.994C161.963 274.717 166.618 274.863 170.766 274.659C181.593 274.127 192.415 274.137 203.253 274.101C205.859 274.092 212.187 274.725 214.271 273.575L215 273.01C220.461 268.88 223.312 261.84 229.437 258.813C230.932 258.074 231.252 254.473 231.596 252.886C238.657 220.296 256.117 190.54 278.697 166.331C315.63 126.732 366.259 103.677 420.322 101.778ZM437.612 745.25C437.937 759.43 438.074 773.611 438.202 787.794C438.23 790.813 438.297 793.84 438.261 796.86C438.243 798.32 437.961 800.227 438.355 801.613C446.657 805.785 455.21 809.184 463.844 812.598C470.474 815.221 477.177 818.003 484 820.077L484.905 820.361C489.332 821.641 494.797 821.076 499.374 821.038C507.643 820.969 515.906 820.82 524.172 820.629C537.771 820.314 551.378 820.258 564.973 819.902L565.276 819.716C558.764 813.264 536.045 806.205 533.784 798.75L533.703 798.245C533.327 795.704 533.428 792.726 535.075 790.606C536.353 788.963 538.026 787.746 540.135 787.505C544.311 787.029 549.168 789.625 552.968 791.192C558.419 793.44 563.883 795.67 569.306 797.987L569.259 746.929C535.203 755.112 499.374 756.317 464.763 750.776C458.521 749.777 452.368 748.361 446.235 746.843C444.182 746.336 439.54 744.576 437.612 745.25Z"/>
	<path fill="#3C110F" transform="scale(0.5 0.5)" d="M305.506 839.058C307.24 836.543 309.212 835.898 312.174 835.372C315.14 834.845 318.057 835.116 320.995 835.671L324.504 839.047L325.232 841.386C324.87 844.612 324.274 845.67 321.934 847.896L321.363 848.081C316.266 849.406 310.512 849.323 305.998 846.541C305.456 843.899 305.111 841.78 305.506 839.058Z"/>
	<path fill="#AD664F" transform="scale(0.5 0.5)" d="M270.624 872.832C269.683 867.781 268 857.529 269.69 852.766C271.265 848.327 278.141 845.075 282.149 843.415C286.008 841.817 302.344 837.727 305.506 839.058C305.111 841.78 305.456 843.899 305.998 846.541C301.68 846.47 297.224 846.12 293.002 847.138C286.312 848.75 280.809 851.354 276.937 857.341C275.276 859.91 274.93 862.225 275.073 865.25L274.641 865.61L274 866.183L273.593 866.533C271.638 868.276 271.167 870.389 271.059 872.918L270.624 872.832Z"/>
	<path fill="#B97965" transform="scale(0.5 0.5)" d="M324.504 839.047C326.805 837.935 330.773 838.308 333.347 838.241C339.235 838.085 345.131 838.011 351.017 837.767C372.974 836.857 394.986 835.45 416.955 834.973L399.571 854.517C387.343 854.666 333.218 848.56 325.232 841.386L324.504 839.047Z"/>
	<path fill="#B16615" transform="scale(0.5 0.5)" d="M218.409 288.279L228.55 288.013L228.666 313.802C218 313.824 207.335 313.983 196.669 314.026C185.133 314.072 174.328 314.38 163.117 311.099C159.866 309.778 156.426 308.467 153.5 306.497C152.441 305.785 151.37 305.058 151.079 303.75C156.906 297.465 164.129 291.94 172.626 290.049L173.5 289.86C180.203 288.356 187.145 288.546 193.975 288.532C202.125 288.515 210.261 288.461 218.409 288.279Z"/>
	<path fill="#B97965" transform="scale(0.5 0.5)" d="M461.836 851.523L445.364 832.614L445.343 832.297C458.333 833.63 471.263 835.462 484.303 836.321C492.425 836.857 500.692 836.762 508.831 836.693C515.89 836.633 523.056 836.755 530.101 836.348C540.543 835.746 552.008 834.434 562.443 835.555C556.248 842.068 546.574 850.174 543.462 858.742L543.161 859.524L542.988 859.997C542.688 859.825 542.293 859.58 541.966 859.487C541.084 859.237 540.588 859.322 539.704 858.88C537.813 857.933 535.709 857.535 533.75 856.755C532.757 856.36 532.248 856.46 531.25 856.255C530.231 856.046 529.276 855.945 528.25 855.755C527.043 855.531 526.445 855.232 525.066 855.246L524.5 855.255C523.292 854.471 521.452 854.76 520 854.755C518.795 853.952 517.428 854.255 516 854.255C514.747 853.42 512.537 853.755 511 853.755C509.314 852.631 503.749 853.255 501.5 853.255C499.97 852.235 496.414 852.755 494.5 852.755L493.75 852.255C492.845 852.271 491.969 852.324 491.077 852.144C489.862 851.899 488.385 851.73 487.25 851.255C485.102 850.355 482.166 850.767 479.817 850.767C473.928 850.766 467.584 850.26 461.836 851.523Z"/>
	<path fill="#532820" transform="scale(0.5 0.5)" d="M689.13 411.981L689.571 411.438C694.693 411.32 699.65 411.268 704.75 411.5C708.376 411.665 711.852 410.914 715.5 411.538L716.875 411.617C718.895 411.713 722.553 412.365 724.25 411.295L724.75 411.755C725.874 411.751 726.023 411.904 727 411.255L727.522 411.317C728.874 411.468 729.934 411.469 731.29 411.318C733.182 411.107 739.438 411.806 740.5 410.755L741.156 410.844C744.148 411.219 747.238 410.886 750.25 410.861C762.384 410.761 774.173 409.914 786.108 412.678C792.04 414.052 797.436 416.125 801.259 421.119C804.566 425.439 805.657 430.771 804.675 436.087C803.44 442.773 798.825 449.791 793.104 453.436C788.191 456.568 782.505 457.889 776.876 459.052C771.371 460.19 765.604 461.508 760 461.938C756.06 462.241 752.224 461.923 748.305 462.064C745.474 462.166 741.46 462.918 738.731 462.379L738.273 462.25L738.112 461.279C737.902 460.136 737.501 459.605 736.699 458.76L735.949 458.942L735.946 454.75C737.668 452.887 740.337 451.515 742.472 450.127C746.447 447.543 750.429 444.962 753.817 441.615C757.952 437.529 761.2 432.368 761.006 426.33C760.868 422.046 757.562 418.116 754.648 415.279C753.688 414.502 753.305 414.124 752.051 413.932C751.427 413.836 751.061 413.825 750.467 413.562C748.569 412.723 747.127 412.71 745.092 412.739L744.25 412.755C743.497 412.002 743.27 412.255 742.25 412.255C742.776 411.718 745.008 411.906 745.839 411.875C744.209 411.575 742.393 411.756 740.751 411.958C730.581 413.209 719.624 412.431 709.368 412.397C702.796 412.375 695.574 413.06 689.13 411.981Z"/>
	<path fill="#532820" transform="scale(0.5 0.5)" d="M751.885 558.363L752.5 557.525C762.841 556.382 773.966 556.865 784.356 557.337C793.421 557.748 806.911 557.236 814.248 563.29C817.345 565.847 819.62 570.222 819.931 574.224C820.307 579.064 818.644 583.766 815.32 587.307C809.063 593.972 797.841 592.986 789.504 592.979L740.466 591.952C741.511 589.605 742.706 584.755 744.25 583.011L745.78 582.615L743.5 582.409L743.126 581.5C744.619 575.226 747.184 569.368 749.184 563.256C749.777 561.444 749.956 558.718 751 557.255L751.885 558.363Z"/>
	<path fill="#3C110F" transform="scale(0.5 0.5)" d="M745.78 582.615L743.5 582.409L743.126 581.5C744.619 575.226 747.184 569.368 749.184 563.256C749.777 561.444 749.956 558.718 751 557.255L751.885 558.363C751.136 561.659 750.348 564.965 749.004 568.077C761.865 568.713 774.791 568.588 787.667 568.642C792.252 568.662 798.09 567.909 802.549 568.714C803.9 568.957 805.125 569.734 806.008 570.768C807.493 572.509 807.809 574.822 807.568 577.042C807.425 578.359 806.851 579.579 805.798 580.419C801.768 583.63 782.195 582.418 776.88 582.438C766.513 582.478 756.147 582.537 745.78 582.615Z"/>
	<path fill="#532820" transform="scale(0.5 0.5)" d="M754.58 488.381L754.281 487.877C753.68 486.427 754.198 484.228 754.325 482.685C754.536 480.132 754.523 477.573 754.521 475.013C776.363 475.296 798.213 477.135 820.045 477.976C829.585 478.343 839.138 478.56 848.682 478.864C854.781 479.058 861.294 478.908 867.25 480.349L868.035 480.534C872.588 481.65 876.823 484.566 879.226 488.651C881.336 492.239 882.76 496.857 881.555 500.985L881.122 502.25L880.948 502.809C879.657 506.787 876.169 510.135 872.5 511.963C870.488 512.965 868.388 513.579 866.154 513.85C854.53 515.259 841.959 514.435 830.216 514.447C804.156 514.473 778.087 513.963 752.035 514.036L752.172 513.253C752.524 511.07 751.496 506.337 753 505.034L755.097 504.634C753.475 504.634 753.223 504.818 751.926 503.75C751.386 499.316 751.201 492.454 752.869 488.29L754.58 488.381Z"/>
	<path fill="#3C110F" transform="scale(0.5 0.5)" d="M755.097 504.634C753.475 504.634 753.223 504.818 751.926 503.75C751.386 499.316 751.201 492.454 752.869 488.29L754.58 488.381C775.545 488.989 796.506 489.389 817.483 489.204C827.491 489.116 837.494 489.045 847.502 489.112C853.445 489.151 859.512 488.935 865.417 489.663C867.678 492.113 869.233 494.474 869.166 497.969C869.132 499.766 868.721 500.695 867.467 502.012C866.224 503.317 863.548 503.739 861.836 503.944C853.999 504.88 845.189 504.079 837.25 504.116C829.429 504.153 821.591 504.438 813.771 504.307C794.306 503.98 774.524 503.151 755.097 504.634Z"/>
	<path fill="#9EA848" transform="scale(0.5 0.5)" d="M487.923 339.344C487.605 352.133 489.723 363.515 495.64 374.941C498.176 379.836 497.53 408.92 497.756 415.862C498.202 429.576 498.856 443.307 499.487 457.016L318.142 456.601C315.52 444.161 313.109 431.188 306.452 420.122C300.448 410.142 289.736 402.706 281.743 394.301C262.313 373.87 250.65 347.114 245.198 319.681C243.859 312.947 242.543 306.124 242.096 299.262C241.381 288.27 242.548 276.821 244.501 266C249.488 238.373 260.978 210.701 279.525 189.363L293.475 194.066C276.694 211.423 268.072 234.214 262.122 257.191C259.151 268.665 256.754 279.078 256.975 291.044C257.161 301.186 259.32 311.72 261.82 321.531C266.838 341.22 274.554 361.155 286.735 377.615C291.061 383.461 296.684 388.567 301.91 393.596C312.532 403.82 322.296 413.474 328.438 427.199C330.426 431.642 331.659 436.399 333.543 440.875L334.13 440.826L482.135 440.072C482.329 421.822 482.34 403.577 482.548 385.322C482.699 372.093 481.919 357.393 485.101 344.505C485.625 342.383 486.453 340.942 487.923 339.344Z"/>
	<defs>
		<linearGradient id="gradient_0" gradientUnits="userSpaceOnUse" x1="689.75" y1="905.25" x2="688.25702" y2="831.81799">
			<stop offset="0" stop-color="#8E533F"/>
			<stop offset="1" stop-color="#B57059"/>
		</linearGradient>
	</defs>
	<path fill="url(#gradient_0)" transform="scale(0.5 0.5)" d="M609.132 871.118C610.995 869.245 613.128 866.533 613.276 863.75C613.563 858.34 600.253 843.06 596.569 838.847C595.166 837.243 592.062 834.752 591.364 832.865C609.779 833.134 628.191 836.062 646.598 837.176C660.285 838.003 673.982 838.454 687.675 839.119C695.827 839.515 704.332 839.52 712.328 841.25C719.065 842.708 725.498 846.649 730.283 851.546C736.097 857.496 740.203 865.16 740.035 873.625C739.864 882.213 735.69 890.216 729.549 896.076C723.963 901.407 716.902 904.19 709.284 905.051C690.555 907.169 670.763 906.286 651.919 906.225C622.634 906.13 593.325 905.99 564.042 906.137C511.708 906.4 459.373 905.612 407.044 905.846C380.42 905.966 353.849 906.676 327.216 906.486C319.767 906.433 312.183 906.686 304.75 906.365C295.719 905.976 286.577 903.572 280.25 896.743C275.09 891.173 270.189 880.402 270.624 872.832L271.059 872.918C272.653 876.021 274.179 879.333 276.645 881.863C282.496 887.867 293.349 892.318 301.25 894.913L304.75 895.854L307.75 896.591L308.181 896.322C309.419 895.562 310.311 895.145 311.75 894.841L333.357 889.237C340.524 887.749 348.073 889.829 354.954 891.694C363.917 894.123 375.501 892.056 384.627 891.244C390.809 890.694 397.018 890.498 403.222 890.457C415.882 890.373 428.6 890.613 441.25 891.091C444.843 891.227 448.401 891.796 452 891.86C466.099 892.11 480.165 891.308 494.258 891.243C504.288 891.197 514.283 891.925 524.304 891.836C540.668 891.691 557.168 891.009 573.51 890.201C581.178 889.821 588.849 888.981 596.531 888.928C612.759 888.815 629.121 889.112 645.343 889.571C650.898 889.728 656.452 889.856 662.008 890.004C665.31 890.092 668.188 890.498 671.5 889.878L674.196 889.508C676.963 890.675 680.065 890.959 682.988 891.659L683.33 890.999L684.997 891.503C686.405 891.881 687.586 892.621 688.997 893.003C690.172 893.32 691.118 893.887 692.263 894.268L692.997 894.503C694.182 894.931 695 895.482 696.312 895.107C699.651 894.153 703.067 890.223 704.905 887.4L701.548 884.152L701 883.745L700.003 882.997L698 882.245C696.866 881.614 697.688 881.823 696.673 881.621C695.686 881.425 696.28 881.596 695.237 881.248L694.503 880.997L693.5 880.745C692.457 880.205 692.652 880.25 691.5 880.245L691 879.75C689.677 879.743 690.298 879.85 689.031 879.422C687.456 878.888 685.873 878.578 684.25 878.229L677.5 877.131C669.633 875.687 660.423 876.866 652.95 874.056L652.04 873.689L609.132 871.118Z"/>
	<path fill="#AD664F" transform="scale(0.5 0.5)" d="M652.04 873.689C659.708 870.556 666.916 867.398 673 861.69C674.163 860.599 675.158 859.769 676.124 858.473C677.261 856.947 678.688 855.867 679.75 854.245L680.716 853L682.908 850.202C683.797 849.152 683.232 849.892 683.827 848.902C684.691 847.467 685.896 846.21 687.561 845.874L689.997 845.453L690.668 845.331C693.074 844.998 701.765 844.612 703.5 845.73C705.364 845.699 706.516 845.954 708.25 846.245C709.511 846.457 710.018 846.297 711.25 846.745L712.503 846.982L714.003 847.486L714.753 847.726C715.72 848.053 716.552 848.598 717.533 848.863C718.207 849.045 718.423 849.367 719 849.719C722.876 852.085 726.162 854.579 727.652 859.11C728.896 862.895 727.422 866.894 725.473 870.105C722.187 875.519 715.509 881.617 709.25 883.082C707.342 883.529 704.311 883.352 702.5 882.692L702.057 882.943L702.693 883.506C703.943 884.661 704.833 886.277 705.742 887.71C702.938 891.851 700.438 894.515 695.819 896.585L682.988 891.659L683.33 890.999L684.997 891.503C686.405 891.881 687.586 892.621 688.997 893.003C690.172 893.32 691.118 893.887 692.263 894.268L692.997 894.503C694.182 894.931 695 895.482 696.312 895.107C699.651 894.153 703.067 890.223 704.905 887.4L701.548 884.152L701 883.745L700.003 882.997L698 882.245C696.866 881.614 697.688 881.823 696.673 881.621C695.686 881.425 696.28 881.596 695.237 881.248L694.503 880.997L693.5 880.745C692.457 880.205 692.652 880.25 691.5 880.245L691 879.75C689.677 879.743 690.298 879.85 689.031 879.422C687.456 878.888 685.873 878.578 684.25 878.229L677.5 877.131C669.633 875.687 660.423 876.866 652.95 874.056L652.04 873.689Z"/>
	<path fill="#B5715B" transform="scale(0.5 0.5)" d="M325.232 841.386C333.218 848.56 387.343 854.666 399.571 854.517C398.247 856.793 397.448 858.934 396.687 861.426L398.287 865.97L400.526 868.465C402.695 870.526 405.052 871.148 408 870.992C409.272 870.925 410.715 870.617 411.822 869.96C415.584 867.73 418.695 863.144 421.429 859.783C424.935 855.471 428.541 851.252 432.164 847.037C435.49 851.814 448.646 870.257 454.193 871.459C456.696 872.001 459.882 871.515 462.068 870.182C464.373 868.777 466.328 866.057 466.812 863.391C467.702 858.477 464.473 855.242 461.836 851.523C467.584 850.26 473.928 850.766 479.817 850.767C482.166 850.767 485.102 850.355 487.25 851.255C488.385 851.73 489.862 851.899 491.077 852.144C491.969 852.324 492.845 852.271 493.75 852.255L494.5 852.755C496.414 852.755 499.97 852.235 501.5 853.255C503.749 853.255 509.314 852.631 511 853.755C512.537 853.755 514.747 853.42 516 854.255C517.428 854.255 518.795 853.952 520 854.755C521.452 854.76 523.292 854.471 524.5 855.255L525.066 855.246C526.445 855.232 527.043 855.531 528.25 855.755C529.276 855.945 530.231 856.046 531.25 856.255C532.248 856.46 532.757 856.36 533.75 856.755C535.709 857.535 537.813 857.933 539.704 858.88C540.588 859.322 541.084 859.237 541.966 859.487C542.293 859.58 542.688 859.825 542.988 859.997C543.032 864.218 543.135 866.053 546.155 869.069C548.398 871.309 550.592 871.675 553.668 871.589C554.649 871.562 555.533 871.43 556.49 871.231L557.103 870.846C561.36 868.135 564.365 864.248 567.494 860.369C570.776 856.3 574.028 852.204 577.247 848.086C581.705 853.717 586.157 859.354 590.848 864.795C592.995 867.284 595.156 870.136 597.702 872.217C598.574 872.93 599.79 873.711 600.953 873.772C603.655 873.913 606.87 872.489 609.132 871.118L652.04 873.689L652.95 874.056C660.423 876.866 669.633 875.687 677.5 877.131L684.25 878.229C685.873 878.578 687.456 878.888 689.031 879.422C690.298 879.85 689.677 879.743 691 879.75L691.5 880.245C692.652 880.25 692.457 880.205 693.5 880.745L694.503 880.997L695.237 881.248C696.28 881.596 695.686 881.425 696.673 881.621C697.688 881.823 696.866 881.614 698 882.245L700.003 882.997L701 883.745L701.548 884.152L704.905 887.4C703.067 890.223 699.651 894.153 696.312 895.107C695 895.482 694.182 894.931 692.997 894.503L692.263 894.268C691.118 893.887 690.172 893.32 688.997 893.003C687.586 892.621 686.405 891.881 684.997 891.503L683.33 890.999L682.988 891.659C680.065 890.959 676.963 890.675 674.196 889.508L671.5 889.878C668.188 890.498 665.31 890.092 662.008 890.004C656.452 889.856 650.898 889.728 645.343 889.571C629.121 889.112 612.759 888.815 596.531 888.928C588.849 888.981 581.178 889.821 573.51 890.201C557.168 891.009 540.668 891.691 524.304 891.836C514.283 891.925 504.288 891.197 494.258 891.243C480.165 891.308 466.099 892.11 452 891.86C448.401 891.796 444.843 891.227 441.25 891.091C428.6 890.613 415.882 890.373 403.222 890.457C397.018 890.498 390.809 890.694 384.627 891.244C375.501 892.056 363.917 894.123 354.954 891.694C348.073 889.829 340.524 887.749 333.357 889.237L311.75 894.841C310.311 895.145 309.419 895.562 308.181 896.322L307.75 896.591L304.75 895.854L301.25 894.913C293.349 892.318 282.496 887.867 276.645 881.863C274.179 879.333 272.653 876.021 271.059 872.918C271.167 870.389 271.638 868.276 273.593 866.533L274 866.183L274.641 865.61L275.073 865.25C274.93 862.225 275.276 859.91 276.937 857.341C280.809 851.354 286.312 848.75 293.002 847.138C297.224 846.12 301.68 846.47 305.998 846.541C310.512 849.323 316.266 849.406 321.363 848.081L321.934 847.896C324.274 845.67 324.87 844.612 325.232 841.386Z"/>
	<path fill="#AD664F" transform="scale(0.5 0.5)" d="M315.697 857.75L316.381 858.202C321.235 861.089 324.865 864.468 329.04 868.231C330.802 869.82 332.802 871.09 334.241 873L334.61 875.233L334.745 875.75L333.058 877.488C332.256 878.012 331.696 878.394 330.745 878.597C329.477 878.867 328.567 879.554 327.25 879.745C326.946 877.804 325.587 875.744 324.668 874C322.842 870.534 321.015 867.044 319.049 863.655C317.894 861.665 316.507 859.916 315.697 857.75Z"/>
	<path fill="#AD664F" transform="scale(0.5 0.5)" d="M325.232 841.386C333.218 848.56 387.343 854.666 399.571 854.517C398.247 856.793 397.448 858.934 396.687 861.426L398.287 865.97C389.014 864.504 379.572 861.186 370.33 859.203C354.447 855.793 337.033 854.017 321.934 847.896C324.274 845.67 324.87 844.612 325.232 841.386Z"/>
	<path fill="#B97965" transform="scale(0.5 0.5)" d="M556.49 871.231L557.103 870.846C561.36 868.135 564.365 864.248 567.494 860.369C570.776 856.3 574.028 852.204 577.247 848.086C581.705 853.717 586.157 859.354 590.848 864.795C592.995 867.284 595.156 870.136 597.702 872.217C598.574 872.93 599.79 873.711 600.953 873.772C603.655 873.913 606.87 872.489 609.132 871.118L652.04 873.689L652.95 874.056C660.423 876.866 669.633 875.687 677.5 877.131L684.25 878.229C685.873 878.578 687.456 878.888 689.031 879.422C690.298 879.85 689.677 879.743 691 879.75L691.5 880.245C692.652 880.25 692.457 880.205 693.5 880.745L694.503 880.997L695.237 881.248C696.28 881.596 695.686 881.425 696.673 881.621C697.688 881.823 696.866 881.614 698 882.245L700.003 882.997L701 883.745L701.548 884.152L704.905 887.4C703.067 890.223 699.651 894.153 696.312 895.107C695 895.482 694.182 894.931 692.997 894.503L692.263 894.268C691.118 893.887 690.172 893.32 688.997 893.003C687.586 892.621 686.405 891.881 684.997 891.503L683.33 890.999L682.988 891.659C680.065 890.959 676.963 890.675 674.196 889.508C672.242 888.6 670.092 888.314 668.257 887.395L666.375 886.503L665.75 886.255C664.89 885.902 664.173 885.646 663.25 885.5L661.75 885.255C657.764 884.029 652.113 884.399 647.836 884.229C636.307 883.771 624.455 883.787 613 882.456C608.711 881.957 603.704 881.634 599.627 880.194C596.918 879.237 594.429 877.566 591.578 877.036C581.509 875.167 571.35 874.553 561.25 872.926C559.263 872.606 558.201 872.344 556.49 871.231Z"/>
	<path fill="#B97965" transform="scale(0.5 0.5)" d="M735.949 458.942C735.526 468.386 736.152 477.971 736.347 487.424C736.565 497.968 736.439 508.518 736.595 519.063C736.834 535.19 736.89 550.378 733.235 566.272C731.701 572.941 729.104 579.735 726.449 586.021C723.111 593.924 719.466 601.08 714.056 607.775L710.655 608.092C697.852 608.569 685 608.468 672.189 608.498C660.916 608.525 649.634 608.71 638.406 607.546C607.796 604.372 579.896 591.865 557.322 570.792C547.347 561.48 539.404 550.586 532.823 538.667C525.434 525.286 520.111 510.606 517.618 495.5C513.651 471.463 515.295 446.167 514.49 421.842C517.546 423.743 520.997 424.917 524.432 425.932C521.394 423.911 518.48 421.901 515.109 420.463L514.469 420.195L513.9 402.735C517.447 406.403 520.903 409.025 525.257 411.691C525.748 411.432 526.751 410.719 527.25 410.642C530.072 410.206 534.109 411.557 537.064 411.826C542.098 412.284 547.034 412.454 552.086 412.46C572.693 412.488 593.44 412.045 614.033 411.25C624.485 410.846 634.886 409.98 645.359 410.027C659.986 410.092 674.521 411.933 689.13 411.981C695.574 413.06 702.796 412.375 709.368 412.397C719.624 412.431 730.581 413.209 740.751 411.958C742.393 411.756 744.209 411.575 745.839 411.875C745.008 411.906 742.776 411.718 742.25 412.255C743.27 412.255 743.497 412.002 744.25 412.755L745.092 412.739C747.127 412.71 748.569 412.723 750.467 413.562C751.061 413.825 751.427 413.836 752.051 413.932C753.305 414.124 753.688 414.502 754.648 415.279C757.562 418.116 760.868 422.046 761.006 426.33C761.2 432.368 757.952 437.529 753.817 441.615C750.429 444.962 746.447 447.543 742.472 450.127C740.337 451.515 737.668 452.887 735.946 454.75L735.949 458.942Z"/>
	<path fill="#753F35" transform="scale(0.5 0.5)" d="M525.257 411.691C525.748 411.432 526.751 410.719 527.25 410.642C530.072 410.206 534.109 411.557 537.064 411.826C542.098 412.284 547.034 412.454 552.086 412.46C572.693 412.488 593.44 412.045 614.033 411.25C624.485 410.846 634.886 409.98 645.359 410.027C659.986 410.092 674.521 411.933 689.13 411.981C695.574 413.06 702.796 412.375 709.368 412.397C719.624 412.431 730.581 413.209 740.751 411.958C742.393 411.756 744.209 411.575 745.839 411.875C745.008 411.906 742.776 411.718 742.25 412.255C743.27 412.255 743.497 412.002 744.25 412.755L745.092 412.739C747.127 412.71 748.569 412.723 750.467 413.562C751.061 413.825 751.427 413.836 752.051 413.932C753.305 414.124 753.688 414.502 754.648 415.279C750.145 416.264 745.344 416.466 740.75 416.801C728.24 417.715 715.605 417.41 703.065 417.433C693.369 417.451 683.683 417.894 674 417.932C657.896 417.994 641.748 417.395 625.631 417.365C607.907 417.332 590.183 417.432 572.459 417.469C562.913 417.489 552.995 418.031 543.497 417.151C536.711 416.522 531.167 415.199 525.257 411.691Z"/>
	<path fill="#532820" transform="scale(0.5 0.5)" d="M422.127 115.216C448.349 114.529 472.241 119.637 496.549 129.398C511.123 135.25 525.837 142.83 538.506 152.126C553.535 163.153 565.9 176.613 577.109 191.407C582.237 198.174 587.342 205.096 591.529 212.497C593.983 216.833 595.901 221.469 598.06 225.956C602.835 235.878 607.051 245.818 610.042 256.44C615.318 275.178 617.616 294.934 618.297 314.345C618.633 323.939 618.608 333.671 617.958 343.25C617.4 351.485 615.679 360.112 616.573 368.352C617.235 374.456 619.175 379.341 621.291 385C622.663 388.67 624.848 392.146 626.09 395.829L626.294 396.5C626.847 398.037 626.914 399.33 626.936 400.958C619.88 402.73 610.584 401.629 603.338 401.25C595.168 400.823 586.776 400.812 578.592 400.714C572.596 400.643 566.227 401.322 560.25 400.745C557.851 400.513 554.696 401.158 552.503 400.498C550.752 399.97 548.819 400.195 547 400.245C546.159 399.413 543.561 399.711 542.234 399.373L541.75 399.245C540.272 398.921 538.949 398.404 537.503 397.998C536.811 397.803 536.485 397.748 535.82 397.387L532.5 395.745C530.276 394.024 527.655 391.765 525.278 390.25C522.391 388.41 520.469 385.541 518.337 382.882L512.574 372.66L512.255 372C511.901 371.296 511.554 370.72 511.363 369.952L511.255 369.5C510.803 368.607 510.13 368.026 509.879 367.014C509.605 365.912 508.902 364.278 508.379 363.233C507.839 362.155 507.81 360.676 507.255 359.75C506.679 358.789 506.755 358.966 506.755 357.75C505.941 356.936 506.255 356.36 506.255 355.25C505.368 354.363 505.755 352.504 505.755 351.25C504.963 350.458 505.255 349.585 505.255 348.5C506.09 347.657 505.753 345.249 505.755 344C506.631 343.115 506.121 341.783 506.363 340.564L506.502 340.002C508.491 330.95 508.602 322.66 507.114 313.496C505.977 306.486 503.846 299.731 501.178 293.166C488.648 262.331 460.691 240.1 433.106 223.303C426.687 219.394 420.285 214.983 413.298 212.162C409.087 210.463 404.83 208.715 400.485 207.39C396.459 206.163 392.227 205.413 388.25 204.194C387.566 203.984 387.032 203.736 386.315 203.601L382.04 202.46L380.528 201.972L379.25 201.722C378.566 201.493 378.25 201.226 377.481 201.076L373.738 200.169L373.04 199.96L372.25 199.733C371.312 199.414 370.53 199.066 369.531 198.904C368.397 198.721 367.571 198.292 366.482 198.081L354 195.217L292.933 177.912C298.812 172.554 304.218 166.693 310.048 161.282C315.442 156.275 321.388 151.543 327.283 147.141C332.259 143.425 337.959 140.689 343.402 137.74C368.472 124.163 393.62 116.553 422.127 115.216Z"/>
	<path fill="#A9B351" transform="scale(0.5 0.5)" d="M293.475 194.066C313.093 199.213 332.806 204.122 352.5 208.98C366.989 212.554 382.111 215.705 396 221.229C405.121 224.858 413.265 230.692 421.42 236.082C432.065 243.118 442.825 249.98 452.424 258.438C462.821 267.599 471.867 279.162 478.885 291.091C484.953 301.403 488.871 312.902 489.005 324.958C489.058 329.787 488.282 334.541 487.923 339.344C486.453 340.942 485.625 342.383 485.101 344.505C481.919 357.393 482.699 372.093 482.548 385.322C482.34 403.577 482.329 421.822 482.135 440.072L334.13 440.826L333.543 440.875C331.659 436.399 330.426 431.642 328.438 427.199C322.296 413.474 312.532 403.82 301.91 393.596C296.684 388.567 291.061 383.461 286.735 377.615C274.554 361.155 266.838 341.22 261.82 321.531C259.32 311.72 257.161 301.186 256.975 291.044C256.754 279.078 259.151 268.665 262.122 257.191C268.072 234.214 276.694 211.423 293.475 194.066Z"/>
	<path fill="#421D13" transform="scale(0.5 0.5)" d="M335.773 241.673C345.159 240.842 356.266 245.016 364.105 249.977C372.964 255.584 380.723 266.828 382.987 277.142L383.167 278C384.14 282.497 384.379 287.313 383.673 291.872L383.53 292.75C382.562 299.311 379.778 305.177 375.802 310.457C367.732 321.173 356.769 326.51 343.73 328.33L343.186 328.425C332.495 329.464 321.481 326.068 312.922 319.628C303.607 312.62 297.619 302.595 296.02 291.046C294.504 280.097 297.238 268.804 303.989 260.021C311.799 249.861 323.098 243.313 335.773 241.673Z"/>
	<path fill="#818892" transform="scale(0.5 0.5)" d="M336.739 257.202C343.963 257.491 350.357 258.694 356.337 263.101C362.289 267.488 366.116 274.761 367.131 282C368.075 288.735 366.557 296.445 362.288 301.888C357.092 308.512 350.389 311.474 342.126 312.271C334.701 312.974 327.529 310.527 321.799 305.861C315.9 301.058 312.377 293.547 311.725 286.038C311.093 278.762 313.852 271.041 318.513 265.5C323.519 259.55 329.319 257.797 336.739 257.202Z"/>
	<path fill="#949CAB" transform="scale(0.5 0.5)" d="M340.56 270.122C344.489 269.822 348.716 270.272 352.21 272.239C355.542 274.114 357.678 277.713 358.701 281.328C359.742 285.005 358.796 288.487 356.899 291.725C353.026 298.336 347.053 301.055 339.936 302.896C336.35 303.602 332.911 303.694 329.396 302.577C327.361 301.93 324.181 300.718 323.168 298.741C322.273 296.993 321.301 295.664 320.887 293.68C319.899 288.946 320.803 283.248 323.576 279.25C327.413 273.718 334.299 271.448 340.56 270.122Z"/>
	<path fill="#A9B351" transform="scale(0.5 0.5)" d="M429.262 471.254L499.544 471.602C501.381 510.333 513.958 547.857 540.618 576.75C559.834 597.574 584.862 614.478 612.938 620.382C629.032 623.767 645.529 624.132 661.904 624.301C677.549 624.462 693.199 624.451 708.835 625.091C700.619 637.403 692.109 650.032 682.511 661.302C654.33 694.391 616.135 717.722 574.251 729.189C546.86 736.765 518.891 740.222 490.484 737.772C434.625 732.955 381.483 710.12 345.03 666.409C337.746 657.675 330.956 648.189 325.498 638.21C321.335 630.601 318.114 622.601 315.128 614.47C305.914 589.379 300.971 561.137 305.288 534.503C307.058 523.584 311.25 513.165 313.998 502.481C316.587 492.421 317.42 482.276 318.374 471.972L429.262 471.254Z"/>
</svg>
